<svg xmlns="http://www.w3.org/2000/svg" viewBox="0 0 500 500"><!--Segmentation--><g id="Chart--inject-73"><g id="chart--inject-73"><polygon points="317 184.44 302.53 173.5 271.92 128.32 286.39 139.27 317 184.44" style="fill:#263238"></polygon><path d="M317,184.44l-30.61-45.17,54.54-49.62C345.71,118.21,336.52,154.62,317,184.44Z" style="fill:#37474f"></path><polygon points="286.39 139.27 271.92 128.32 326.45 78.71 340.93 89.65 286.39 139.27" style="fill:#455a64"></polygon><path d="M309.85,47.13c1.34,1,14.12,10.68,14.92,11.29a30.14,30.14,0,0,0-11.83-5.53c-13.77-3.08-29.93,3-45.52,17.21-12.62,11.47-22.82,25.74-31.09,43.53l-14.48-10.94c8.28-17.79,18.48-32.06,31.1-43.54C268.54,45,284.7,38.86,298.46,41.94A30,30,0,0,1,309.85,47.13Z" style="fill:#BA68C8"></path><path d="M309.85,47.13c1.34,1,14.12,10.68,14.92,11.29a30.14,30.14,0,0,0-11.83-5.53c-13.77-3.08-29.93,3-45.52,17.21-12.62,11.47-22.82,25.74-31.09,43.53l-14.48-10.94c8.28-17.79,18.48-32.06,31.1-43.54C268.54,45,284.7,38.86,298.46,41.94A30,30,0,0,1,309.85,47.13Z" style="fill:#fff;opacity:0.4"></path><path d="M237.68,114.26l-1.36-.63c8.28-17.79,18.48-32.06,31.1-43.53C283,55.92,299.17,49.8,312.94,52.88c13,2.91,22.36,13.65,26.65,30.4l-10.21,9.29-46.77,42.55Z" style="fill:#BA68C8"></path><polygon points="284.73 150.34 284.73 218.02 270.25 207.08 270.25 139.39 284.73 150.34" style="fill:#BA68C8"></polygon><polygon points="284.73 150.34 284.73 218.02 270.25 207.08 270.25 139.39 284.73 150.34" style="fill:#fff;opacity:0.30000000000000004"></polygon><path d="M284.73,218V150.34l27.65,40.8C303.55,203.29,295,211.58,284.73,218Z" style="fill:#BA68C8"></path><path d="M284.73,218V150.34l27.65,40.8C303.55,203.29,295,211.58,284.73,218Z" style="fill:#fff;opacity:0.6000000000000001"></path></g></g><g id="character-1--inject-73"><g id="character--inject-73"><path id="back-arm--inject-73" d="M139.2,138.65c3.61-.36,6.32.8,9.38,3.76s21,24,21,24l31.83,1.3v11.85l-32.79,2.05a9.81,9.81,0,0,1-7.35-2.65L142.53,161.3Z" style="fill:#f28f8f"></path><g id="Slice--inject-73"><path d="M193.08,211.21h0c-20.84-15.28-24-57.48-6.85-99.57l14.47,10.94c-17.05,41.84-14,83.8,6.47,99.32Z" style="fill:#BA68C8"></path><path d="M193.08,211.21h0c-20.84-15.28-24-57.48-6.85-99.57l14.47,10.94c-17.05,41.84-14,83.8,6.47,99.32Z" style="opacity:0.15"></path><polygon points="232.54 133.12 247.02 144.07 200.74 122.58 186.26 111.63 232.54 133.12" style="fill:#BA68C8"></polygon><polygon points="232.54 133.12 247.02 144.07 200.74 122.58 186.26 111.63 232.54 133.12" style="opacity:0.4"></polygon><path d="M212.75,225.23c-25.4-11.79-30.5-57.29-12-102.65L247,144.07v78.31C234.23,229.06,223,230,212.75,225.23Z" style="fill:#BA68C8"></path><path d="M212.75,225.23c-25.4-11.79-30.5-57.29-12-102.65L247,144.07v78.31C234.23,229.06,223,230,212.75,225.23Z" style="opacity:0.25"></path></g><g id="character-girl--inject-73"><path d="M70.59,341.79c.69,1.73.14,3.79-.09,8.33a74.75,74.75,0,0,0-.21,9c.07,1.07.35,2.06.51,3.11a3.77,3.77,0,0,0,1.06,2.2,2.31,2.31,0,0,0,2,.71,2.24,2.24,0,0,0,1.37-1A17.37,17.37,0,0,0,76.6,361c.37,7.66,8.27,13.44,3.12,15a14.09,14.09,0,0,1-10.89-1.3,9.52,9.52,0,0,1-3.33-3.2c-1.72-3.49-1.29-6.69-1.13-9.6.35-6.41-.49-9.8-.8-13C63.19,345,69.41,341.13,70.59,341.79Z" style="fill:#263238"></path><path d="M125.82,344.61s-.43,0-.56.61c-.2.84-.47,2.43-.85,3.87a19.78,19.78,0,0,0-.89,6.26c.22,1.58,2.23,3.22,6.11,4.6a26.93,26.93,0,0,1,8.28,5.05c2.25,2.31,7.22,4.45,10.66,4.77,4,.38,8.3-.43,9.46-3.27.49-1.19-1.43-2.66-6.44-5.46,0,0-2.52-1.55-3.94-2.57-7.16-5.17-9.53-8-11.4-12.92Z" style="fill:#263238"></path><path d="M138.81,349.66c-2.21-2.72-2.51-5.22-1.88-10s7.07-46,8.71-56.36c2.75-17.36,6-64,3.44-79.29l-45.55.66c-3.92,8.24-7.08,18.49-7.6,34.86-.4,12.49-2.86,46.26-2.86,46.26s-6,4.6-10.68,14.15c-4.15,8.44-10.2,38.11-10.2,38.11h0a26.55,26.55,0,0,1-1.6,3.71,7.3,7.3,0,0,0-2,4.26,73.85,73.85,0,0,0,.65,15.51,7.18,7.18,0,0,0,4.47,5.64,4,4,0,0,0,1.81.42,1.3,1.3,0,0,0,.9-.27c.47-.41.14-1.49.09-2a20,20,0,0,1-.07-2.57c0-1.69.24-3.74.46-5.41a55.47,55.47,0,0,1,2.52-11l1.05-2.1h0s22.82-39.46,29.2-49c5.06-7.51,10-37.57,14.33-53.91L127,281.17a77.19,77.19,0,0,0-3.84,12.42c-1.31,7.28,2,36.36,2.92,46.68a21.17,21.17,0,0,1-.3,5.73h0c.26,4.47,3.5,6.05,6.77,8.78,1.63,1.35,8.86,6.4,13.34,7.61,3.64,1,5.15-.35,5.73-1.36A77.2,77.2,0,0,1,138.81,349.66Z" style="fill:#ffa8a7"></path><path d="M111.06,192s-8.17,9.79-11.53,20.6-3.7,18-4.87,37.18-1.52,35.14-1.52,35.14-11.07,7.37-14.59,24.88a17.62,17.62,0,0,0,2.59,3.31l7.34-10-4.73,12.29a19.11,19.11,0,0,0,11.46,3.71s11.93-18.24,15.85-23.95,13-53.83,13-53.83l1.86,39.89s-4,9.24-4,16,.67,16.58.67,16.58a23.42,23.42,0,0,0,18.25.65s5.77-30.84,6.94-42.09,5.22-51,1.35-76.3Z" style="fill:#455a64"></path><path d="M124,241.38l5.62-17.15s8.5,1.57,15.57-3c0,0-1.8,6.29-13.87,7.4l-6.25,16.79-.46,8.19Z" style="fill:#263238"></path><path d="M155.26,157.23c-4.08-7.3-13.28-16.07-16.06-18.58l-16.4,1.27c-3.66.47-7.33.86-9.11,1.67-3.67,1.67-5.2,3.34-5.58,7.51a39.57,39.57,0,0,0,.87,13.4c1.08,4.5,3.14,11,3.14,11l.25,1.5c0,.26.09.52.13.78a53.64,53.64,0,0,1-.12,9.88c7.09,11.38,34,8.86,36.69,3.13.87-3.6,3.18-13.7,3.31-15.08C157.88,169.38,158.23,162.53,155.26,157.23Z" style="fill:#BA68C8"></path><path d="M112.38,185.67,111.06,192s4.5,5.91,19.47,6.87c13.68.88,18.55-2.88,18.55-2.88V188.8s-4.87,4.15-19,2.77C117.68,190.37,112.38,185.67,112.38,185.67Z" style="fill:#37474f"></path><path d="M143,191a11.75,11.75,0,0,0-5.73.47c-1,.56-1.29,6.68-.93,7.49s5.37,1,6.62-.74C143.47,197.58,144.37,191.44,143,191Zm-1.28,6.41a5.35,5.35,0,0,1-2.94.66h0a7.22,7.22,0,0,1-1.1-.08,18.85,18.85,0,0,1,.52-5.31,12.43,12.43,0,0,1,3.17-.38,7.77,7.77,0,0,1,.8,0A15.68,15.68,0,0,1,141.76,197.4Z" style="fill:#e0e0e0"></path><path d="M133.45,89.21l-2.54,0A21.8,21.8,0,0,0,109,110.86h0a22.6,22.6,0,0,0,22.48,22.75l.06-14.24s19.18,2.38,22.76-11.39S145.49,89.28,133.45,89.21Z" style="fill:#263238"></path><path d="M103.89,117.92c4.43-3.25,8.19-.48,11.44,4s4.77,8.85.33,12.1a10,10,0,0,1-11.77-16.06Z" style="fill:#263238"></path><path d="M144.81,99.81c2.49,1.5,7.26,3.1,6.61,19.17-.45,11.17-4,13.92-5.79,14.7s-5.33.28-8.74-.31l0,6.71s6,7.25,6.89,14.39c0,0-4.16-1.25-13.58-7.52-6.31-4.21-7.37-6.39-7.37-6.39l.11-16.18s-2.24,2.49-6,0a6.43,6.43,0,0,1-1.19-9.64c2.2-2.21,6.36-1,7.23,2.06a34.38,34.38,0,0,0,11.61-3.13A17.66,17.66,0,0,0,144.81,99.81Z" style="fill:#ffa8a7"></path><path d="M123,116.76v4.58h0a4.23,4.23,0,0,0,4.23-4.24v-5.7Z" style="fill:#263238"></path><path d="M139.11,116a1.41,1.41,0,1,1-1.47-1.4A1.44,1.44,0,0,1,139.11,116Z" style="fill:#263238"></path><path d="M139.27,125.58l3.26,1.06a1.69,1.69,0,0,1-2.13,1.16A1.81,1.81,0,0,1,139.27,125.58Z" style="fill:#f28f8f"></path><path d="M150.63,111.18l-3.39-.71a1.67,1.67,0,0,1,2-1.37A1.83,1.83,0,0,1,150.63,111.18Z" style="fill:#263238"></path><path d="M150,115a1.42,1.42,0,0,1-1.34,1.52,1.45,1.45,0,0,1-1.47-1.4A1.41,1.41,0,1,1,150,115Z" style="fill:#263238"></path><polygon points="143.47 114.73 143.64 123.19 148.11 121.84 143.47 114.73" style="fill:#f28f8f"></polygon><path d="M136.89,133.37c-3.59-.49-11-2.66-12.11-5.59a7.56,7.56,0,0,0,2.57,3.75c2.2,1.9,9.53,4.08,9.53,4.08Z" style="fill:#f28f8f"></path></g><g id="Arm--inject-73"><path d="M203.06,149.34a5.45,5.45,0,0,0-1.75-3,1.35,1.35,0,0,0-1.09-.41,1.91,1.91,0,0,0-1.18.91c-1.06,1.52-1.89,3.17-3,4.67a8.3,8.3,0,0,1-4.33,3.14,1.67,1.67,0,0,1,.16-1.05c.37-.9.65-1.55,1-2.52a3.89,3.89,0,0,0,.21-3.3.84.84,0,0,0-.74-.48,1,1,0,0,0-.66.36c-2,1.8-3.56,3.52-5.49,5.52s-2.08,3.37-4.93,5.36-6.61,3.57-10.89,5.49A148.9,148.9,0,0,1,154,170.61c-8.94-5.58-23.58-18.15-30.17-23.19-3.53-2.7-6.9-5.59-9-6.23-2.83-.24-5.37,1.95-6.86,6.28-2.72,11.78,5.61,16.6,17.3,24.08,4,2.56,16.59,10.7,22.46,14.32a7.08,7.08,0,0,0,5.89.75,78.94,78.94,0,0,0,8.1-3.43c4.89-2.45,11-5.95,15.88-8.44,3.94-2,8.09-4.2,11.44-6a39,39,0,0,0,5.62-3.39,33.32,33.32,0,0,0,5.63-5.12,12.25,12.25,0,0,0,2.2-3.54,13.28,13.28,0,0,0,.75-3.78A11.27,11.27,0,0,0,203.06,149.34Z" style="fill:#ffa8a7"></path></g></g></g></svg>